<svg width="88" height="33" viewBox="0 0 88 33" fill="none" xmlns="http://www.w3.org/2000/svg">
<path d="M11.592 16.224L7.816 6.048H0.84L8.2 23.232L3.912 32.544H10.728L22.12 6.048H15.24L11.592 16.224ZM22.7368 15.008C22.7368 20.736 26.1288 24.224 30.3848 24.224C32.9128 24.224 34.7368 23.104 35.6648 21.504V24H41.9368V6.048H35.6648V8.544C34.7368 6.944 32.9448 5.824 30.3848 5.824C26.1288 5.824 22.7368 9.28 22.7368 15.008ZM35.6648 15.008C35.6648 17.44 34.1608 18.752 32.4008 18.752C30.6088 18.752 29.1368 17.408 29.1368 15.008C29.1368 12.576 30.6088 11.296 32.4008 11.296C34.1608 11.296 35.6648 12.608 35.6648 15.008ZM45.5108 24H51.7828V14.368C51.7828 12.288 52.9348 11.072 54.7908 11.072C56.5828 11.072 57.7348 12.288 57.7348 14.368V24H64.0068V13.536C64.0068 8.832 61.4148 5.888 57.3188 5.888C54.7268 5.888 52.8388 7.072 51.7828 8.608V0.32H45.5108V24ZM68.4403 17.184C68.4403 22.336 71.3523 24 75.3203 24H78.0403V18.656H76.2163C75.1603 18.656 74.7443 18.24 74.7443 17.28V11.264H78.0083V6.048H74.7443V1.696H68.4403V6.048H66.2323V11.264H68.4403V17.184ZM87.605 21.024C87.605 19.2 86.165 17.76 83.957 17.76C81.717 17.76 80.277 19.2 80.277 21.024C80.277 22.848 81.717 24.256 83.957 24.256C86.165 24.256 87.605 22.848 87.605 21.024Z" fill="#0C102F"/>
</svg>
